<svg width="25" height="32" viewBox="0 0 25 32" fill="none" xmlns="http://www.w3.org/2000/svg">
<path fill-rule="evenodd" clip-rule="evenodd" d="M5.27632 16.398C5.25961 19.5777 7.59111 21.4732 11.3117 20.6114V12.1847C7.54408 11.0373 5.29208 13.3586 5.27632 16.398ZM11.4255 0H16.5499V24.2553C11.638 25.0584 6.93366 25.5677 3.56821 23.6859C-0.765114 21.2631 -1.11348 13.564 2.31549 10.1349C4.05402 8.39647 7.55402 7.17259 11.3117 7.97125V0.341701C11.3019 0.180003 11.2928 0.0190293 11.4255 0Z" fill="currentColor"/>
<path fill-rule="evenodd" clip-rule="evenodd" d="M24.8628 5.35211H19.7384V0H24.8628V5.35211Z" fill="currentColor"/>
<path fill-rule="evenodd" clip-rule="evenodd" d="M24.8628 8.06201C24.857 11.8355 24.8578 14.547 24.8574 19.1312C24.6398 23.6363 24.6904 27.2238 23.0408 29.3794C22.7155 29.8045 22.0246 30.4246 21.4465 30.8599C20.9611 31.2254 20.0359 31.9664 19.5107 31.9987C18.9812 32.0312 17.621 31.2637 17.0053 30.9737C16.197 30.593 15.4497 30.0874 14.6141 29.8351C16.5633 28.6272 18.4136 27.7216 19.169 25.28C19.8259 23.1566 19.7384 20.0797 19.7384 17.081C19.7384 14.1201 19.7516 10.6776 19.7516 8.06335L24.8628 8.06201Z" fill="currentColor"/>
</svg>
